<svg width="275" height="73" xmlns="http://www.w3.org/2000/svg"><defs><filter x="-39.2%" y="-39.8%" width="178.4%" height="179.6%" filterUnits="objectBoundingBox" id="a"><feGaussianBlur stdDeviation="3.39642729 -0.24334903" in="SourceGraphic"/></filter></defs><g fill="none" fill-rule="evenodd"><path d="M50.78 24.286c3.094 0 5.553.92 7.376 2.758 1.824 1.84 2.735 4.597 2.735 8.275v14.278h-7.17V36.432c0-1.978-.406-3.454-1.218-4.427-.812-.974-1.969-1.46-3.47-1.46-1.685 0-3.018.548-3.999 1.645-.98 1.097-1.47 2.727-1.47 4.89v12.517h-7.17V36.432c0-3.925-1.563-5.888-4.689-5.888-1.654 0-2.972.549-3.952 1.646s-1.471 2.727-1.471 4.89v12.517h-7.17v-24.94h6.848v2.874a9.051 9.051 0 0 1 3.378-2.41c1.333-.557 2.796-.835 4.39-.835 1.746 0 3.324.348 4.734 1.043a8.407 8.407 0 0 1 3.4 3.037c1.012-1.298 2.291-2.303 3.839-3.014 1.547-.71 3.24-1.066 5.079-1.066zm29.61 25.682c-2.605 0-4.942-.549-7.01-1.646-2.068-1.097-3.685-2.619-4.85-4.566-1.163-1.947-1.746-4.157-1.746-6.629 0-2.472.583-4.682 1.747-6.629 1.164-1.947 2.78-3.469 4.849-4.566 2.068-1.097 4.405-1.646 7.01-1.646 2.604 0 4.932.549 6.985 1.646s3.662 2.619 4.826 4.566c1.165 1.947 1.747 4.157 1.747 6.629 0 2.472-.582 4.682-1.747 6.629-1.164 1.947-2.773 3.469-4.826 4.566-2.053 1.097-4.381 1.646-6.986 1.646zm0-5.934c1.838 0 3.347-.626 4.526-1.877 1.18-1.252 1.77-2.929 1.77-5.03 0-2.102-.59-3.778-1.77-5.03-1.18-1.251-2.688-1.877-4.527-1.877-1.838 0-3.355.626-4.55 1.877-1.195 1.252-1.793 2.928-1.793 5.03 0 2.101.598 3.778 1.793 5.03 1.195 1.251 2.712 1.877 4.55 1.877zm44.812-19.377l-10.434 24.94h-7.4l-10.387-24.94h7.4l6.848 16.967 7.078-16.967h6.895zm72.48 25.31c-2.605 0-4.941-.548-7.01-1.645-2.068-1.097-3.684-2.619-4.849-4.566-1.164-1.947-1.746-4.157-1.746-6.629 0-2.472.582-4.682 1.746-6.629 1.165-1.947 2.781-3.469 4.85-4.566 2.068-1.097 4.404-1.646 7.009-1.646 2.604 0 4.933.549 6.986 1.646s3.661 2.619 4.826 4.566c1.164 1.947 1.746 4.157 1.746 6.629 0 2.472-.582 4.682-1.746 6.629-1.165 1.947-2.773 3.469-4.826 4.566-2.053 1.097-4.382 1.646-6.986 1.646zm0-5.933c1.838 0 3.347-.626 4.527-1.877 1.18-1.252 1.77-2.929 1.77-5.03 0-2.102-.59-3.778-1.77-5.03-1.18-1.251-2.689-1.877-4.527-1.877-1.839 0-3.356.626-4.55 1.877-1.196 1.252-1.793 2.928-1.793 5.03 0 2.101.597 3.778 1.792 5.03 1.195 1.251 2.712 1.877 4.55 1.877zm51.027-19.748c3.095 0 5.554.92 7.377 2.758 1.823 1.84 2.735 4.597 2.735 8.275v14.278h-7.17V36.432c0-1.978-.406-3.454-1.218-4.427-.812-.974-1.969-1.46-3.47-1.46-1.686 0-3.018.548-3.999 1.645-.98 1.097-1.47 2.727-1.47 4.89v12.517h-7.17V36.432c0-3.925-1.563-5.888-4.689-5.888-1.654 0-2.972.549-3.953 1.646-.98 1.097-1.47 2.727-1.47 4.89v12.517h-7.17v-24.94h6.848v2.874a9.051 9.051 0 0 1 3.378-2.41c1.333-.557 2.796-.835 4.39-.835 1.746 0 3.324.348 4.734 1.043a8.407 8.407 0 0 1 3.4 3.037c1.012-1.298 2.291-2.303 3.838-3.014 1.548-.71 3.24-1.066 5.08-1.066z" fill="#3F3C3C"/><path d="M157.493 37.22c0 .092-.046.741-.138 1.947h-18.706c.337 1.545 1.133 2.766 2.39 3.662 1.256.896 2.818 1.344 4.688 1.344 1.287 0 2.428-.193 3.424-.58.996-.386 1.922-.996 2.78-1.83l3.815 4.172c-2.328 2.688-5.73 4.033-10.203 4.033-2.789 0-5.255-.549-7.4-1.646-2.145-1.097-3.8-2.619-4.964-4.566-1.164-1.947-1.746-4.157-1.746-6.629 0-2.441.574-4.643 1.723-6.606a12.121 12.121 0 0 1 4.734-4.59c2.007-1.096 4.252-1.645 6.734-1.645 2.42 0 4.611.526 6.572 1.576 1.961 1.051 3.5 2.558 4.62 4.52 1.118 1.963 1.677 4.242 1.677 6.838zm-12.824-7.464c-1.623 0-2.987.464-4.09 1.391-1.103.927-1.777 2.194-2.022 3.801h12.18c-.246-1.576-.92-2.835-2.023-3.778-1.103-.942-2.451-1.414-4.045-1.414z" fill-opacity=".219" fill="#525761"/><path d="M138.439 13.018c0 .093-.046.742-.138 1.947h-18.707c.337 1.545 1.134 2.766 2.39 3.662 1.257.897 2.82 1.345 4.688 1.345 1.287 0 2.429-.194 3.425-.58.995-.386 1.922-.996 2.78-1.83l3.815 4.171c-2.329 2.689-5.73 4.033-10.203 4.033-2.789 0-5.255-.548-7.4-1.645-2.145-1.098-3.8-2.62-4.964-4.567-1.164-1.947-1.747-4.156-1.747-6.629 0-2.441.575-4.643 1.724-6.605a12.121 12.121 0 0 1 4.734-4.59c2.007-1.097 4.251-1.645 6.733-1.645 2.421 0 4.612.525 6.573 1.576 1.96 1.05 3.5 2.557 4.619 4.52 1.118 1.962 1.678 4.241 1.678 6.837zm-12.824-7.463c-1.624 0-2.987.463-4.09 1.39-1.103.928-1.777 2.195-2.023 3.802h12.18c-.245-1.576-.919-2.836-2.022-3.778-1.103-.943-2.451-1.414-4.045-1.414z" fill="#3F3C3C" filter="url(#a)" transform="translate(19 24)"/></g></svg>